inDegrees=yes
name=ik_l_comf_01-000_orientations
DataType=double
version=3
OpenSimVersion=4.5.1-2024-10-23-33f3f5902
endheader
time	pelvis_tilt	pelvis_list	pelvis_rotation	pelvis_tx	pelvis_ty	pelvis_tz	hip_flexion_r	hip_adduction_r	hip_rotation_r	knee_angle_r	ankle_angle_r	subtalar_angle_r	mtp_angle_r	hip_flexion_l	hip_adduction_l	hip_rotation_l	knee_angle_l	ankle_angle_l	subtalar_angle_l	mtp_angle_l	lumbar_extension	lumbar_bending	lumbar_rotation
12.15000000000011	7.028473899605707	-0.04597834732021843	-32.16283737319539	0	0.95	0	5.711758645860203	-0.4673512378534659	-1.804049480451129	-55.33574926986338	-4.978504293576419	18.89782716663392	0	12.27133859651315	6.695645722364513	1.831238039646469	-14.5579029133108	-2.175323403976926	0.2899728707287247	0	0	0	0
12.17500000000011	6.795849029524447	-0.02322341687809849	-31.88613759413109	0	0.95	0	7.53545412738698	-0.7890680235485568	-2.324982916154911	-55.53257576265577	-4.203238137237611	17.23028013062338	0	11.0689149671208	6.513390904212097	2.055895953770627	-13.7727433095525	-1.575367881926908	0.5621503720465496	0	0	0	0
12.20000000000011	6.480738315848842	-0.09099982131140212	-31.47536186800535	0	0.95	0	9.370176602032174	-0.9866201940154282	-3.009050313647147	-55.40857485429284	-3.289677275922828	15.90910401140207	0	9.926828293308745	6.235397796666024	2.42412066645163	-12.91203491541283	-1.099382111659012	0.7074241471507025	0	0	0	0
12.22500000000011	6.150665142785901	-0.1884175703914937	-31.04382210595406	0	0.95	0	11.17449120332574	-1.158274313219514	-3.736440969910388	-54.87344192286864	-2.189820307913175	14.71888767056542	0	8.686872965802211	5.8430416903987	2.797307928840144	-11.92850010886482	-0.6785692363836916	0.8753778094611556	0	0	0	0
12.25000000000011	5.799639959754441	-0.3302609072512267	-30.55905843990881	0	0.95	0	12.89443800999926	-1.349960712291579	-4.42063380291613	-53.97688465523515	-1.194402486702975	13.65940241062402	0	7.54935950101587	5.326973579166754	3.126166585600648	-10.95760677611825	-0.3091305529206325	1.08237728757643	0	0	0	0
12.27500000000011	5.435190123288843	-0.4807690376651095	-30.09583960303716	0	0.95	0	14.54811332786822	-1.668792404568757	-5.070798617501264	-52.72289086943923	-0.3601383671418735	12.76690312726826	0	6.527934618744392	4.843233227789061	3.481693239116729	-10.08790456310103	0.03179986024503828	1.27723696938786	0	0	0	0
12.30000000000011	5.083728125798789	-0.6462516111113796	-29.63565928209341	0	0.95	0	16.06262314378756	-1.977693826100007	-5.562029785406726	-51.18067047864269	0.4551071450241186	12.08514839395226	0	5.643754081018344	4.442643277232309	3.820426000332579	-9.311625208055881	0.3328505718293963	1.357195317921915	0	0	0	0
12.32500000000011	4.73066628459935	-0.8383348711372424	-29.13485573357109	0	0.95	0	17.46875859668667	-2.292316724640236	-6.060681311012412	-49.28459187246425	1.183295501373891	11.4623819336628	0	4.771531901736678	3.994964696428184	4.199554220553262	-8.581284786877999	0.5916735941720948	1.380560832192943	0	0	0	0
12.35000000000011	4.429181399078972	-1.038876301869996	-28.61681832725897	0	0.95	0	18.72707043368479	-2.561381696348712	-6.463286599563524	-47.1228683781137	1.784153714242741	10.76425966917042	0	3.887915174858848	3.543970118986008	4.571442650220374	-7.853526409545369	0.872117988145497	1.39190773369463	0	0	0	0
12.37500000000011	4.161944553795597	-1.241696943064029	-28.09216862033467	0	0.95	0	19.84495545953479	-2.807170207689657	-6.811284717391728	-44.55058600159818	2.124964265674257	9.938310016759097	0	2.928929558573215	3.079212408409518	4.991623110902377	-7.142933521233132	1.18111276652071	1.35057971339831	0	0	0	0
12.40000000000011	3.939635894889989	-1.414966011340645	-27.56661421781012	0	0.95	0	20.84960918625922	-2.959977863289076	-7.061773549173913	-41.76018243647642	2.334823247010119	8.977225010469711	0	1.910187720824471	2.638281707846655	5.424516792334808	-6.412640520772617	1.571973986446677	1.317905142797432	0	0	0	0
12.42500000000011	3.737159241405384	-1.575435353242296	-27.00769091044803	0	0.95	0	21.71505754284511	-3.037125238465848	-7.248342366744858	-38.65312242824049	2.478827463655934	7.983294737467725	0	0.8160341061184606	2.192688907462078	5.962332559233533	-5.706737450436499	1.997010808656022	1.243898365366404	0	0	0	0
12.45000000000011	3.567752055349507	-1.692343991391501	-26.39787088287308	0	0.95	0	22.48721088033167	-3.15685015463845	-7.467710400554804	-35.40107541402105	2.510093912831018	7.056848657313593	0	-0.2421068408023827	1.775880513334961	6.528992735900354	-5.063292972391949	2.489825474863049	1.254103623327788	0	0	0	0
12.47500000000011	3.412746039383937	-1.750100173150559	-25.77976742556148	0	0.95	0	23.17451043545489	-3.387986257338477	-7.718636611282975	-31.95088624632814	2.435800661881303	6.370118141024697	0	-1.21911725826617	1.378347283290455	7.10757299705849	-4.565336961066528	3.029431271219338	1.330906161086805	0	0	0	0
12.50000000000011	3.333576301526868	-1.793296773326808	-25.16710306768755	0	0.95	0	23.66521488727133	-3.69889320827321	-8.111443885639853	-28.40834169214088	2.102231530127996	5.975645549780213	0	-2.112286314102261	1.002585834821219	7.652595510142073	-4.229697685114791	3.571993078267535	1.388346346166358	0	0	0	0
12.52500000000011	3.329297614380917	-1.824228653167979	-24.58251613576489	0	0.95	0	23.87325805121155	-4.017875491922662	-8.553481467934281	-24.62983364019189	1.546382556473721	5.816931442811803	0	-2.96891159306696	0.6572421061067841	8.171533031669568	-4.090006181832695	4.126006241274047	1.398136464057561	0	0	0	0
12.55000000000011	3.389989700296244	-1.810920326186755	-23.98708004550382	0	0.95	0	23.82917569681397	-4.362944664425043	-9.075212731060596	-20.79603995917309	0.9306981858979549	5.84444076894254	0	-3.755193457129906	0.4691751147634624	8.595284666724798	-4.13401814128162	4.726954833806628	1.455864933764163	0	0	0	0
12.57500000000011	3.514526343121509	-1.77718029122341	-23.35680210040845	0	0.95	0	23.54180149035681	-4.639210706477068	-9.433289153442013	-16.88680482180169	0.3034341021152294	6.002989473148276	0	-4.562357236459252	0.3627165373494241	9.051279144521761	-4.32058963689339	5.288199424903426	1.325911477746579	0	0	0	0
12.60000000000011	3.68228503846802	-1.696633268085448	-22.69091622445358	0	0.95	0	23.09864619074466	-4.934745801171952	-9.449676510848901	-13.13735898139021	-0.2571073005906328	5.941045062731929	0	-5.389993360270783	0.3797614093111379	9.501522395589539	-4.568375344763575	5.833941736546223	1.186880466080108	0	0	0	0
12.62500000000011	3.818759592447275	-1.52249790634052	-22.04252071342762	0	0.95	0	22.69737741422708	-5.42646811980495	-8.998914196383964	-9.700618210454357	-0.6669084257439531	5.772258296467173	0	-6.168123115679264	0.4690899467265787	9.890540283145155	-4.903573967109012	6.360162591476023	1.117108869080285	0	0	0	0
12.65000000000011	3.993041591523204	-1.334370864445626	-21.38454004954647	0	0.95	0	22.36053174497972	-6.147616643179129	-8.221608291634839	-6.818422291801685	-0.8704642480461167	5.623714336091506	0	-7.06639155340161	0.5287553280928705	10.18387424741058	-5.2148116272295	6.91478102558315	1.224836829792668	0	0	0	0
12.67500000000011	4.154366954799475	-1.092835777947496	-20.7455501321374	0	0.95	0	21.82574636946647	-6.728524352672966	-7.229179080375493	-4.101066676929189	-0.9133546584853748	5.348004672056138	0	-7.92316987754473	0.5470597150587078	10.406166075606	-5.639918584345939	7.38497938010528	1.433090313389214	0	0	0	0
